<svg width="18" height="20" viewBox="0 0 18 20" fill="none" xmlns="http://www.w3.org/2000/svg">
<path fill-rule="evenodd" clip-rule="evenodd" d="M11.7248 1.42988C10.2441 -0.143295 7.74392 -0.143291 6.26329 1.42988L1.26925 6.73605C0.614552 7.43167 0.25 8.35091 0.25 9.30617V15.2981C0.25 17.2783 1.7897 18.9173 3.76608 19.0408L9 19.3679L14.2322 19.0409C16.2095 18.9173 17.7495 17.2771 17.7483 15.296L17.7447 9.31099C17.7442 8.35651 17.3797 7.43816 16.7255 6.74311L11.7248 1.42988ZM8.86918 11.0769C8.94943 11.0276 9.05057 11.0276 9.13082 11.0769L11.1308 12.3049C11.2049 12.3504 11.25 12.4311 11.25 12.518V15.1164C11.25 15.5307 11.5858 15.8664 12 15.8664C12.4142 15.8664 12.75 15.5307 12.75 15.1164V12.518C12.75 11.9097 12.4341 11.345 11.9157 11.0267L9.91571 9.79862C9.35396 9.45368 8.64604 9.45368 8.08429 9.79862L6.08429 11.0267C5.5659 11.345 5.25 11.9097 5.25 12.518V15.1164C5.25 15.5307 5.58579 15.8664 6 15.8664C6.41421 15.8664 6.75 15.5307 6.75 15.1164V12.518C6.75 12.4311 6.79513 12.3504 6.86918 12.3049L8.86918 11.0769Z" fill="#E0B420"/>
</svg>
